<svg data-v-423bf9ae="" xmlns="http://www.w3.org/2000/svg" viewBox="0 0 524 112" class="iconLeft"><!----><!----><!----><g data-v-423bf9ae="" id="185e9dcc-6749-47c9-9942-ef9438a2fee7" fill="#F64B00" transform="matrix(6.060606294135134,0,0,6.060606294135134,125.8383726442772,22.767678275298437)"><path d="M12.40 10.22L11.20 0.57L10.35 0.57L6.64 8.23L2.93 0.57L2.06 0.57L0.87 10.22L1.76 10.22L2.76 2.20L6.22 9.23L7.07 9.23L10.50 2.23L11.49 10.22ZM20.72 10.22L21.69 10.22L18.02 0.57L17.04 0.57L13.36 10.22L14.34 10.22L15.30 7.66L19.75 7.66ZM15.62 6.83L17.53 1.81L19.43 6.83ZM29.58 3.51C29.58 2.03 28.81 0.57 26.80 0.57L23.21 0.57L23.21 10.22L24.14 10.22L24.14 6.44L25.75 6.44L28.39 10.22L29.51 10.22L26.84 6.44C28.83 6.40 29.58 4.98 29.58 3.51ZM24.14 1.44L26.81 1.44C28.04 1.44 28.66 2.37 28.66 3.51C28.66 4.66 28.08 5.59 26.57 5.59L24.14 5.59ZM35.95 10.36C37.31 10.36 38.53 9.80 39.37 8.90L38.71 8.32C38.01 9.04 37.03 9.49 35.95 9.49C33.75 9.49 32.03 7.66 32.03 5.42C32.03 3.18 33.75 1.34 35.95 1.34C37.03 1.34 38.02 1.79 38.71 2.52L39.37 1.93C38.53 1.04 37.31 0.48 35.95 0.48C33.25 0.48 31.11 2.69 31.11 5.42C31.11 8.15 33.25 10.36 35.95 10.36ZM45.32 10.36C47.94 10.36 49.78 8.81 49.83 5.54L45.92 5.54L45.92 6.37L48.82 6.37L48.80 6.58C48.55 8.46 47.14 9.49 45.32 9.49C43.09 9.49 41.37 7.66 41.37 5.42C41.37 3.18 43.09 1.33 45.32 1.33C46.24 1.33 47.11 1.68 47.77 2.21L48.38 1.58C47.57 0.90 46.49 0.46 45.32 0.46C42.57 0.46 40.45 2.67 40.45 5.42C40.45 8.15 42.57 10.36 45.32 10.36ZM57.51 6.93C57.51 4.86 56.15 3.54 54.29 3.54C52.44 3.54 50.96 4.86 50.96 6.93C50.96 9.00 52.44 10.36 54.29 10.36C55.52 10.36 56.64 9.77 57.22 8.72L56.45 8.39C56.01 9.10 55.22 9.51 54.32 9.51C53.00 9.51 52.02 8.72 51.87 7.32L57.50 7.32C57.51 7.20 57.51 7.06 57.51 6.93ZM51.88 6.55C52.05 5.15 53.00 4.40 54.29 4.40C55.57 4.40 56.50 5.19 56.63 6.55ZM62.23 10.36C64.09 10.36 65.66 9.00 65.66 6.93C65.66 4.86 64.09 3.54 62.23 3.54C60.37 3.54 58.81 4.86 58.81 6.93C58.81 9.00 60.37 10.36 62.23 10.36ZM62.23 9.51C60.84 9.51 59.71 8.48 59.71 6.93C59.71 5.39 60.84 4.40 62.23 4.40C63.60 4.40 64.76 5.39 64.76 6.93C64.76 8.48 63.60 9.51 62.23 9.51Z"></path></g><!----><g data-v-423bf9ae="" id="ef3af278-fd6e-464a-87cb-bf5a8d75741e" transform="matrix(1.1111111111111112,0,0,1.1111111111111112,0.44444444444444287,0.44444444444444287)" stroke="none" fill="#284A6C"><path d="M50 0C22.386 0 0 22.386 0 50s22.386 50 50 50 50-22.387 50-50S77.614 0 50 0zm0 95C25.149 95 5 74.85 5 50 5 25.149 25.149 5 50 5s45 20.149 45 45c0 24.85-20.15 45-45 45z"></path><path d="M28.26 53.205a3.912 3.912 0 0 1 7.824 0l-3.913 6.037-3.911-6.037zM40.448 6.026l-.008.001zM55.81 5.386l.21.026-.21-.026zM53.416 5.142c.232.018.466.032.697.053-.232-.021-.465-.035-.697-.053zM50 5zM47.263 5.09c.109-.006.216-.019.325-.024-.109.006-.216.018-.325.024zM45.02 5.28c.05-.005.099-.013.148-.019-.049.006-.098.014-.148.019zM66.938 65.649L33.853 32.564l15.148-15.148L82.087 50.5z"></path><circle cx="32.173" cy="52.868" r="1.812"></circle><path d="M60.231 6.183l-.005-.001.005.001zM81.03 82.571l.002-.001-.002.001zM17.918 81.544l.001.001-.001-.001zM93.417 61.831v-.004.004zM94.146 41.269l-.002-.01.002.011zM93.629 38.957l.001.002zM93.972 59.56zM17.429 18.969l.002-.002zM58.73 94.146l.01-.001-.01.001zM40.44 6.027a.745.745 0 0 0-.023.006l.023-.006zM32.171 49.293a3.912 3.912 0 0 0-3.911 3.912l3.911 6.037 3.913-6.037a3.913 3.913 0 0 0-3.913-3.912zm.002 5.387a1.812 1.812 0 1 1 0-3.625 1.812 1.812 0 0 1 0 3.625zM54.113 5.195zM52.114 5.054c.437.021.869.055 1.302.088-.433-.032-.866-.068-1.302-.088zM45.168 5.262zM40.448 6.026zM47.588 5.066zM93.417 61.827zM60.226 6.182zM93.63 38.959z"></path><g><path d="M36.033 32.481L49.104 19.41l30.964 30.963-13.071 13.072z"></path><path d="M33.639 70.874l19.027 19.027a39.727 39.727 0 0 0 6.177-.896L37.175 67.338l-3.536 3.536zM32.498 28.945l-8.943-8.943a40.272 40.272 0 0 0-3.537 3.535l8.944 8.944 3.536-3.536zM68.533 68.98l-3.535-3.536 2-2-30.965-30.963-3.536 3.536L46.961 50.48l1.784-1.784 3.535 3.536-1.784 1.783L76.461 79.98a39.864 39.864 0 0 0 3.535-3.537l-9.464-9.463-1.999 2zM49.105 12.338l-2.207-2.207c-2.09.161-4.134.48-6.122.95l4.793 4.792 3.536-3.535zM83.601 46.839l-3.535 3.536L49.097 19.41l3.536-3.536zM87.14 50.373l-3.536 3.536 5.314 5.313a39.78 39.78 0 0 0 .949-6.121l-2.727-2.728z"></path><path d="M31.998 69.232l3.536-3.536 1.642 1.642 13.322-13.322-3.536-3.535-26.494 26.493a40.285 40.285 0 0 0 3.602 3.47l9.569-9.569-1.641-1.643z"></path><path d="M33.639 70.874l-1.642-1.642 3.536-3.536 1.642 1.642zM48.745 48.696l3.535 3.536-1.784 1.784-3.535-3.536zM70.532 66.98l-3.535-3.536 13.073-13.07 3.535 3.536zM87.14 50.373l2.781-2.781a40.13 40.13 0 0 0-.863-6.209l-5.454 5.454 3.536 3.536zM68.533 68.981l-3.535-3.536 2-1.999 3.535 3.536z"></path><path d="M83.605 53.91l-3.535-3.536 3.537-3.536 3.535 3.536zM12.73 48.713a2.499 2.499 0 1 1 3.146 3.852l.036.036 16.585-16.585-3.536-3.536L12.73 48.713zM12.376 49.066l.036.036c.091-.137.197-.268.318-.389l-.354.353zM32.497 28.945l13.071-13.071 3.536 3.535-13.072 13.072zM52.64 15.874l5.115-5.115a40.059 40.059 0 0 0-6.348-.723l-2.303 2.302 3.536 3.536z"></path><path d="M32.498 36.017l-3.536-3.535 3.536-3.536 3.535 3.536zM49.107 12.34l3.535 3.536-3.536 3.536-3.535-3.536zM12.73 52.248a2.499 2.499 0 0 0 3.146.317l-3.464-3.463a2.5 2.5 0 0 0 .318 3.146z"></path><path d="M16.265 48.713a2.498 2.498 0 0 0-3.853.389l3.464 3.463a2.498 2.498 0 0 0 .389-3.852z"></path></g></g><!----></svg>