<svg data-v-423bf9ae="" xmlns="http://www.w3.org/2000/svg" viewBox="0 0 392.6666873456661 60" class="font"><!----><!----><!----><g data-v-423bf9ae="" id="5c76ae00-f114-4b5a-a3d7-45c128adda62" fill="white" transform="matrix(6.060606294135134,0,0,6.060606294135134,-5.272726598886862,-2.787878975678126)"><path d="M12.40 10.22L11.20 0.57L10.35 0.57L6.64 8.23L2.93 0.57L2.06 0.57L0.87 10.22L1.76 10.22L2.76 2.20L6.22 9.23L7.07 9.23L10.50 2.23L11.49 10.22ZM20.72 10.22L21.69 10.22L18.02 0.57L17.04 0.57L13.36 10.22L14.34 10.22L15.30 7.66L19.75 7.66ZM15.62 6.83L17.53 1.81L19.43 6.83ZM29.58 3.51C29.58 2.03 28.81 0.57 26.80 0.57L23.21 0.57L23.21 10.22L24.14 10.22L24.14 6.44L25.75 6.44L28.39 10.22L29.51 10.22L26.84 6.44C28.83 6.40 29.58 4.98 29.58 3.51ZM24.14 1.44L26.81 1.44C28.04 1.44 28.66 2.37 28.66 3.51C28.66 4.66 28.08 5.59 26.57 5.59L24.14 5.59ZM35.95 10.36C37.31 10.36 38.53 9.80 39.37 8.90L38.71 8.32C38.01 9.04 37.03 9.49 35.95 9.49C33.75 9.49 32.03 7.66 32.03 5.42C32.03 3.18 33.75 1.34 35.95 1.34C37.03 1.34 38.02 1.79 38.71 2.52L39.37 1.93C38.53 1.04 37.31 0.48 35.95 0.48C33.25 0.48 31.11 2.69 31.11 5.42C31.11 8.15 33.25 10.36 35.95 10.36ZM45.32 10.36C47.94 10.36 49.78 8.81 49.83 5.54L45.92 5.54L45.92 6.37L48.82 6.37L48.80 6.58C48.55 8.46 47.14 9.49 45.32 9.49C43.09 9.49 41.37 7.66 41.37 5.42C41.37 3.18 43.09 1.33 45.32 1.33C46.24 1.33 47.11 1.68 47.77 2.21L48.38 1.58C47.57 0.90 46.49 0.46 45.32 0.46C42.57 0.46 40.45 2.67 40.45 5.42C40.45 8.15 42.57 10.36 45.32 10.36ZM57.51 6.93C57.51 4.86 56.15 3.54 54.29 3.54C52.44 3.54 50.96 4.86 50.96 6.93C50.96 9.00 52.44 10.36 54.29 10.36C55.52 10.36 56.64 9.77 57.22 8.72L56.45 8.39C56.01 9.10 55.22 9.51 54.32 9.51C53.00 9.51 52.02 8.72 51.87 7.32L57.50 7.32C57.51 7.20 57.51 7.06 57.51 6.93ZM51.88 6.55C52.05 5.15 53.00 4.40 54.29 4.40C55.57 4.40 56.50 5.19 56.63 6.55ZM62.23 10.36C64.09 10.36 65.66 9.00 65.66 6.93C65.66 4.86 64.09 3.54 62.23 3.54C60.37 3.54 58.81 4.86 58.81 6.93C58.81 9.00 60.37 10.36 62.23 10.36ZM62.23 9.51C60.84 9.51 59.71 8.48 59.71 6.93C59.71 5.39 60.84 4.40 62.23 4.40C63.60 4.40 64.76 5.39 64.76 6.93C64.76 8.48 63.60 9.51 62.23 9.51Z"></path></g><!----><!----></svg>