<svg width="220" height="30" viewBox="0 0 220 39" fill="none" xmlns="http://www.w3.org/2000/svg">
<path d="M81.5668 31.8012L78.4478 6.71891H76.2385L66.5954 26.6288L56.9524 6.71891H54.6911L51.5981 31.8012H53.9114L56.5105 10.9556L65.5038 29.2279H67.7131L76.6283 11.0336L79.2015 31.8012H81.5668ZM103.192 31.8012H105.713L96.1743 6.71891H93.6271L84.062 31.8012H86.6092L89.1045 25.1472H100.671L103.192 31.8012ZM89.9362 22.9899L94.9007 9.94191L99.8392 22.9899H89.9362ZM126.221 14.3605C126.221 10.5137 124.22 6.71891 118.995 6.71891H109.664V31.8012H112.081V21.9762H116.266L123.128 31.8012H126.039L119.099 21.9762C124.272 21.8722 126.221 18.1814 126.221 14.3605ZM112.081 8.98021H119.021C122.218 8.98021 123.83 11.3975 123.83 14.3605C123.83 17.3496 122.322 19.7669 118.397 19.7669H112.081V8.98021ZM142.778 32.165C146.313 32.165 149.484 30.7095 151.667 28.3702L149.952 26.8627C148.132 28.7341 145.585 29.9037 142.778 29.9037C137.06 29.9037 132.589 25.1472 132.589 19.325C132.589 13.5028 137.06 8.72029 142.778 8.72029C145.585 8.72029 148.158 9.88993 149.952 11.7873L151.667 10.2538C149.484 7.94053 146.313 6.48498 142.778 6.48498C135.76 6.48498 130.198 12.2292 130.198 19.325C130.198 26.4208 135.76 32.165 142.778 32.165ZM167.132 32.165C173.942 32.165 178.725 28.1363 178.855 19.6369H168.692V21.7942H176.23L176.178 22.3401C175.528 27.2266 171.863 29.9037 167.132 29.9037C161.336 29.9037 156.866 25.1472 156.866 19.325C156.866 13.5028 161.336 8.6943 167.132 8.6943C169.524 8.6943 171.785 9.60402 173.5 10.9816L175.086 9.3441C172.981 7.57664 170.173 6.433 167.132 6.433C159.985 6.433 154.474 12.1772 154.474 19.325C154.474 26.4208 159.985 32.165 167.132 32.165ZM198.817 23.2498C198.817 17.8695 195.282 14.4385 190.447 14.4385C185.639 14.4385 181.792 17.8695 181.792 23.2498C181.792 28.6301 185.639 32.165 190.447 32.165C193.644 32.165 196.555 30.6315 198.063 27.9024L196.061 27.0446C194.918 28.8901 192.864 29.9557 190.525 29.9557C187.094 29.9557 184.547 27.9024 184.157 24.2635H198.791C198.817 23.9516 198.817 23.5877 198.817 23.2498ZM184.183 22.2621C184.625 18.6232 187.094 16.6738 190.447 16.6738C193.774 16.6738 196.191 18.7272 196.529 22.2621H184.183ZM211.085 32.165C215.919 32.165 220 28.6301 220 23.2498C220 17.8695 215.919 14.4385 211.085 14.4385C206.25 14.4385 202.196 17.8695 202.196 23.2498C202.196 28.6301 206.25 32.165 211.085 32.165ZM211.085 29.9557C207.472 29.9557 204.535 27.2786 204.535 23.2498C204.535 19.247 207.472 16.6738 211.085 16.6738C214.646 16.6738 217.661 19.247 217.661 23.2498C217.661 27.2786 214.646 29.9557 211.085 29.9557Z" fill="#F64B00"/>
<path d="M19.299 0C8.64056 0 0 8.64056 0 19.299C0 29.9575 8.64056 38.5981 19.299 38.5981C29.9575 38.5981 38.5981 29.9571 38.5981 19.299C38.5981 8.64095 29.9575 0 19.299 0ZM19.299 36.6682C9.70703 36.6682 1.9299 28.8907 1.9299 19.299C1.9299 9.70703 9.70703 1.9299 19.299 1.9299C28.891 1.9299 36.6682 9.70703 36.6682 19.299C36.6682 28.8907 28.8907 36.6682 19.299 36.6682Z" fill="#ffffff"/>
<path d="M10.9078 20.5361C10.9078 20.1356 11.0669 19.7516 11.3501 19.4684C11.6332 19.1852 12.0173 19.0261 12.4178 19.0261C12.8182 19.0261 13.2023 19.1852 13.4855 19.4684C13.7686 19.7516 13.9277 20.1356 13.9277 20.5361L12.4174 22.8663L10.9078 20.5361V20.5361ZM15.6121 2.32591L15.6091 2.3263L15.6121 2.32591ZM21.5416 2.07888L21.6226 2.08892L21.5416 2.07888ZM20.6175 1.9847C20.7071 1.99165 20.7974 1.99705 20.8866 2.00516C20.797 1.99705 20.7071 1.99165 20.6175 1.9847ZM18.2426 1.96463C18.2847 1.96232 18.326 1.9573 18.368 1.95537C18.326 1.95768 18.2847 1.96232 18.2426 1.96463ZM17.3768 2.03797C17.3961 2.03604 17.4151 2.03295 17.434 2.03063C17.4151 2.03295 17.3961 2.03604 17.3768 2.03797ZM25.8368 25.3392L13.0666 12.5691L18.9134 6.72223L31.684 19.492L25.8368 25.3392Z" fill="#ffffff"/>
<path d="M12.4182 21.1054C12.8044 21.1054 13.1176 20.7923 13.1176 20.406C13.1176 20.0198 12.8044 19.7066 12.4182 19.7066C12.0319 19.7066 11.7188 20.0198 11.7188 20.406C11.7188 20.7923 12.0319 21.1054 12.4182 21.1054Z" fill="#ffffff"/>
<path d="M23.248 2.38652L23.2461 2.38613L23.248 2.38652ZM31.276 31.8708L31.2768 31.8704L31.276 31.8708ZM6.916 31.4744L6.91639 31.4748L6.916 31.4744ZM36.0572 23.8656V23.864V23.8656ZM36.3385 15.929L36.3378 15.9252L36.3385 15.9294V15.929ZM36.139 15.0366L36.1394 15.0374L36.139 15.0366ZM6.72726 7.32167L6.72803 7.32089L6.72726 7.32167ZM22.6686 36.3385L22.6725 36.3381L22.6686 36.3385ZM15.6091 2.3263C15.6061 2.32703 15.6031 2.3278 15.6002 2.32862L15.6091 2.3263ZM12.4174 19.0261C12.017 19.0262 11.633 19.1854 11.3499 19.4685C11.0668 19.7517 10.9078 20.1357 10.9078 20.5361L12.4174 22.8663L13.9277 20.5361C13.9276 20.1356 13.7685 19.7515 13.4852 19.4684C13.202 19.1852 12.8179 19.0261 12.4174 19.0261V19.0261ZM12.4182 21.1054C12.2326 21.1054 12.0547 21.0317 11.9235 20.9005C11.7923 20.7693 11.7186 20.5914 11.7186 20.4058C11.7186 20.2203 11.7923 20.0423 11.9235 19.9111C12.0547 19.7799 12.2326 19.7062 12.4182 19.7062C12.6037 19.7062 12.7816 19.7799 12.9128 19.9111C13.044 20.0423 13.1177 20.2203 13.1177 20.4058C13.1177 20.5914 13.044 20.7693 12.9128 20.9005C12.7816 21.0317 12.6037 21.1054 12.4182 21.1054ZM20.115 1.95074C20.2837 1.95885 20.4504 1.97197 20.6175 1.98471C20.4504 1.97236 20.2833 1.95846 20.115 1.95074Z" fill="#ffffff"/>
<path d="M13.908 12.537L18.9532 7.49188L30.9047 19.443L25.8595 24.4885L13.908 12.537Z" fill="#ffffff"/>
<path d="M12.984 27.356L20.3281 34.7C21.1306 34.6475 21.9278 34.5318 22.7123 34.3542L14.3488 25.9912L12.984 27.356V27.356ZM12.5436 11.1722L9.09178 7.72039C8.60888 8.14648 8.15293 8.60217 7.72656 9.08483L11.1788 12.537L12.5436 11.1722V11.1722ZM26.4524 26.6249L25.088 25.2601L25.8599 24.4882L13.908 12.537L12.5432 13.9019L18.126 19.4843L18.8146 18.7957L20.1791 20.1605L19.4905 20.8487L29.5125 30.8707C29.9954 30.4447 30.4511 29.9887 30.8769 29.5055L27.224 25.853L26.4524 26.6249ZM18.9536 4.76223L18.1017 3.91037C17.295 3.97251 16.5061 4.09564 15.7387 4.27705L17.5888 6.12667L18.9536 4.76223ZM32.2684 18.0789L30.9039 19.4438L18.9505 7.49188L20.3153 6.12706L32.2684 18.0789ZM33.6344 19.443L32.2695 20.8078L34.3206 22.8585C34.5039 22.0817 34.6264 21.2918 34.6869 20.496L33.6344 19.443Z" fill="#ffffff"/>
<path d="M12.3506 26.7222L13.7154 25.3574L14.3492 25.9912L19.4913 20.8491L18.1264 19.4847L7.90025 29.7105C8.3355 30.1853 8.79983 30.6326 9.29056 31.0498L12.984 27.3564L12.3506 26.7222V26.7222Z" fill="#ffffff"/>
<path d="M12.984 27.356L12.3502 26.7222L13.715 25.3574L14.3488 25.9912L12.984 27.356ZM18.8146 18.7957L20.1791 20.1605L19.4905 20.8491L18.126 19.4843L18.8146 18.7957ZM27.224 25.853L25.8595 24.4882L30.9055 19.4434L32.2699 20.8082L27.224 25.853ZM33.6344 19.443L34.7078 18.3696C34.6594 17.5633 34.548 16.762 34.3747 15.973L32.2695 18.0782L33.6344 19.443V19.443ZM26.4524 26.6253L25.088 25.2605L25.8599 24.4889L27.2244 25.8538L26.4524 26.6253Z" fill="#ffffff"/>
<path d="M32.2699 20.8082L30.9055 19.4434L32.2707 18.0786L33.6351 19.4434L32.2699 20.8082ZM4.91353 18.8023C5.00893 18.7071 5.12319 18.6331 5.24896 18.5848C5.37474 18.5365 5.50923 18.5151 5.64377 18.522C5.77832 18.5288 5.90993 18.5638 6.03014 18.6246C6.15035 18.6855 6.25648 18.7708 6.3417 18.8751C6.42692 18.9795 6.48933 19.1005 6.52493 19.2304C6.56052 19.3604 6.5685 19.4963 6.54835 19.6295C6.5282 19.7627 6.48037 19.8902 6.40794 20.0038C6.33551 20.1174 6.24009 20.2146 6.12783 20.2891L6.14172 20.303L12.5432 13.9015L11.1784 12.5367L4.91353 18.8023ZM4.77689 18.9385L4.79079 18.9524C4.82591 18.8995 4.86683 18.849 4.91353 18.8023L4.77689 18.9385ZM12.5432 11.1722L17.5884 6.12706L18.9532 7.4915L13.9077 12.537L12.5432 11.1722ZM20.318 6.12706L22.2923 4.15277C21.4843 3.99466 20.665 3.90134 19.8421 3.8737L18.9532 4.76223L20.318 6.12706V6.12706Z" fill="#ffffff"/>
<path d="M12.5436 13.9019L11.1788 12.5374L12.5436 11.1726L13.908 12.5374L12.5436 13.9019ZM18.9543 4.763L20.3188 6.12783L18.954 7.49266L17.5895 6.12783L18.9543 4.763ZM4.91353 20.1667C5.0708 20.324 5.27758 20.4221 5.49887 20.4444C5.72015 20.4667 5.94235 20.4118 6.12783 20.2891L4.79079 18.9524C4.66818 19.138 4.61343 19.3602 4.6358 19.5814C4.65816 19.8027 4.75627 20.0095 4.91353 20.1667V20.1667Z" fill="#ffffff"/>
<path d="M6.27797 18.8023C6.17687 18.701 6.05448 18.6235 5.9197 18.5754C5.78491 18.5273 5.64111 18.5098 5.49872 18.5241C5.35633 18.5385 5.21892 18.5844 5.09647 18.6585C4.97403 18.7326 4.8696 18.833 4.79079 18.9524L6.12782 20.2891C6.24721 20.2103 6.34756 20.1059 6.4216 19.9834C6.49564 19.861 6.54151 19.7237 6.55588 19.5813C6.57026 19.439 6.55278 19.2952 6.50471 19.1605C6.45664 19.0257 6.37919 18.9034 6.27797 18.8023V18.8023Z" fill="#ffffff"/>
</svg>
