<svg width="154" height="33" viewBox="0 0 154 33" fill="none" xmlns="http://www.w3.org/2000/svg">
<path d="M12.4812 0.345313C16.0132 0.345313 18.3751 1.48292 19.5669 3.75815C20.3903 5.46998 20.802 7.14931 20.802 8.79614H20.7695C18.3426 9.01282 16.685 9.12117 15.7965 9.12117C15.7965 7.95105 15.439 6.96512 14.7239 6.16338C14.0305 5.77334 13.4021 5.57832 12.8388 5.57832H11.9287C10.4335 5.57832 9.52343 6.16338 9.1984 7.33349C9.11172 7.68019 9.06838 7.94022 9.06838 8.11357V8.60112C9.06838 10.2479 9.94597 11.4506 11.7011 12.209C11.8528 12.339 13.0663 12.8915 15.3415 13.8666C16.5549 14.43 17.6817 15.1234 18.7218 15.9468V15.9793H13.1313V16.6294H20.5095V17.507H21.4196V27.1604H19.5994V32.1009H5.49304V27.1604H2.14521V23.8126H4.03039V22.675H2.14521V21.8949H8.61334V27.1604H15.244V19.2297H10.271V16.6294H4.1279V15.9793H7.08569V15.9468C4.48544 14.2133 3.18531 11.7648 3.18531 8.60112V8.17858C3.18531 5.51332 3.99789 3.49812 5.62305 2.13299C7.11819 0.941204 9.40425 0.345313 12.4812 0.345313ZM20.5095 16.6294V15.9793H22.7522V16.6294H20.5095ZM0 23.8126V22.675H2.14521V23.8126H0ZM14.2689 22.675H14.919C14.984 22.675 15.0165 22.7075 15.0165 22.7725V22.935H14.4639V23.13H14.9515V23.2926C14.9515 23.3576 14.9298 23.3901 14.8865 23.3901H14.4639V23.6176H15.0165V23.7801C15.0165 23.8234 14.984 23.8451 14.919 23.8451H14.2689C14.1822 23.8451 14.1389 23.8234 14.1389 23.7801V22.7725C14.1605 22.7075 14.2039 22.675 14.2689 22.675ZM13.9764 24.2351H14.1714C14.2147 24.2351 14.3447 24.3652 14.5614 24.6252C14.6698 24.3652 14.7564 24.2351 14.8214 24.2351H14.9515C15.0381 24.2351 15.0815 24.2676 15.0815 24.3327C14.7564 24.6794 14.5939 25.0477 14.5939 25.4378H14.4639C14.3772 25.4378 14.3231 25.2319 14.3014 24.8202C14.0847 24.5385 13.9764 24.3435 13.9764 24.2351ZM13.8464 25.7953H14.0414C14.128 25.7953 14.2147 26.0228 14.3014 26.4779H14.3989C14.4856 26.0228 14.5723 25.7953 14.6589 25.7953H14.8865C14.9298 25.817 14.9515 25.8495 14.9515 25.8928V26.8679C14.9515 26.9546 14.9298 26.9979 14.8865 26.9979H14.7239V26.3153H14.6589L14.4639 26.9979H14.3014C14.2147 26.9979 14.128 26.7704 14.0414 26.3153H13.9764V26.9979H13.8464C13.7597 26.9979 13.7163 26.9546 13.7163 26.8679V25.8928C13.738 25.8278 13.7813 25.7953 13.8464 25.7953ZM19.9244 28.4931V27.4205H20.4445C20.7262 27.4205 20.867 27.5613 20.867 27.843C20.802 27.843 20.7695 27.8755 20.7695 27.9405C20.8779 28.0705 20.932 28.1897 20.932 28.298C20.8454 28.5147 20.6503 28.6231 20.347 28.6231H20.022C19.9569 28.6231 19.9244 28.5797 19.9244 28.4931ZM20.542 27.6805H20.217V27.8755H20.4445C20.5095 27.8755 20.542 27.843 20.542 27.778V27.6805ZM20.5095 28.0705H20.217V28.363H20.5095C20.5745 28.363 20.607 28.3197 20.607 28.233V28.2005C20.607 28.1139 20.5745 28.0705 20.5095 28.0705ZM19.9244 30.0532V28.9806H20.152C20.217 28.9806 20.3687 29.219 20.607 29.6957H20.6395V28.9806H20.932V30.0532C20.932 30.1399 20.8887 30.1832 20.802 30.1832H20.7045C20.6612 30.1832 20.4878 29.9557 20.1845 29.5007V30.0532C20.1845 30.1399 20.152 30.1832 20.087 30.1832H20.022C19.9569 30.1832 19.9244 30.1399 19.9244 30.0532ZM24.8974 0.247803H30.9105C30.9538 0.269472 30.9755 0.312809 30.9755 0.377816V15.8493C30.9755 15.9143 30.9538 15.9468 30.9105 15.9468H30.1954V32.0034C30.1954 32.0684 30.1521 32.1009 30.0654 32.1009H24.8974C24.8324 32.1009 24.7999 32.0684 24.7999 32.0034V15.5568H23.1748C23.1098 15.5568 23.0773 15.5243 23.0773 15.4593V14.7767C23.0989 14.69 23.1314 14.6467 23.1748 14.6467H24.7999V0.377816C24.7999 0.291141 24.8324 0.247803 24.8974 0.247803ZM27.8877 14.6467H24.8324V15.5568H27.8877V14.6467ZM44.3993 0.247803C48.8414 0.247803 51.6367 1.6346 52.7851 4.40821C53.1102 5.10161 53.2727 5.55665 53.2727 5.77334H50.4774V6.61842H53.4677V6.58592C53.4677 6.43424 53.4027 6.16338 53.2727 5.77334H58.4082V6.61842H53.5327V6.68343C53.7927 7.87521 53.9769 9.15367 54.0853 10.5188C54.0853 10.6055 52.1351 10.7463 48.2347 10.9413V10.9088C48.2347 7.37683 47.0212 5.61083 44.5943 5.61083H43.9768C42.1349 5.61083 41.019 6.38007 40.629 7.91855C40.3039 9.21868 40.1414 10.9305 40.1414 13.0541V17.377L40.1089 18.027H38.0612V19.0346H40.1089V26.7379H48.6572V18.7421H53.5977V26.7379H50.835V31.6784H45.1469V32.1009H40.694V31.6784H36.176V29.2081H39.1988V28.1355H34.6809V24.4952H32.7632V20.0097H33.7708C33.7275 18.1462 33.7058 16.6836 33.7058 15.6218C33.7058 10.768 33.9441 7.7127 34.4209 6.45591C34.8542 5.0041 35.5693 3.75815 36.5661 2.71804C38.3212 1.07122 40.9323 0.247803 44.3993 0.247803ZM40.5314 25.1452H40.7915V26.2503H41.4415V26.6079H40.5314C40.4664 26.6079 40.4339 26.5645 40.4339 26.4779V25.2752C40.4339 25.1886 40.4664 25.1452 40.5314 25.1452ZM47.1946 25.1777V25.1452H47.5521C47.7255 25.2969 47.8122 25.4378 47.8122 25.5678C47.8338 25.5678 47.953 25.4269 48.1697 25.1452H48.4622V25.2752C48.2022 25.6003 48.0722 25.8278 48.0722 25.9578C48.1155 25.9578 48.2564 26.142 48.4947 26.5104V26.6079H48.1697L47.8122 26.1853C47.6821 26.4237 47.5738 26.5645 47.4871 26.6079H47.1621C47.2271 26.4562 47.3896 26.1962 47.6496 25.8278L47.1946 25.1777ZM51.615 27.0954C51.9617 27.1821 52.1351 27.2796 52.1351 27.3879V27.6155H51.9076L51.7125 27.3879H51.485C51.42 27.4096 51.3875 27.453 51.3875 27.518V27.6155C51.9292 27.7238 52.2001 27.843 52.2001 27.973V28.1355C52.2001 28.4172 52.0376 28.5581 51.7125 28.5581H51.485C51.29 28.5581 51.1383 28.4606 51.03 28.2655V28.038H51.3225C51.3225 28.2114 51.4308 28.298 51.6475 28.298H51.7125C51.7559 28.298 51.8101 28.2439 51.8751 28.1355C51.8751 28.0922 51.6259 27.973 51.1275 27.778L51.0625 27.648V27.3879C51.0625 27.2796 51.2467 27.1821 51.615 27.0954ZM66.2415 0.345313C69.7735 0.345313 72.1354 1.48292 73.3272 3.75815C74.1722 5.46998 74.5948 7.14931 74.5948 8.79614H74.5298C72.1245 9.01282 70.4777 9.12117 69.5893 9.12117C69.5893 7.95105 69.2209 6.96512 68.4842 6.16338C67.8124 5.77334 67.184 5.57832 66.599 5.57832H65.7214C64.2046 5.57832 63.2837 6.16338 62.9586 7.33349C62.8936 7.68019 62.8611 7.94022 62.8611 8.11357V8.60112C62.8611 10.2479 63.7279 11.4506 65.4614 12.209C65.6131 12.339 66.8265 12.8915 69.1017 13.8666C70.3152 14.43 71.442 15.1234 72.4821 15.9468V15.9793H66.924V16.6294H74.2697V17.507H75.2123V27.1604H73.3922V32.1009H59.2533V27.1604H55.9055V23.8126H57.7906V22.675H55.9055V21.8949H62.3736V27.1604H69.0042V19.2297H64.0312V16.6294H57.8881V15.9793H60.8784V15.9468C58.2565 14.2133 56.9456 11.7648 56.9456 8.60112V8.17858C56.9456 5.51332 57.769 3.49812 59.4158 2.13299C60.8893 0.941204 63.1645 0.345313 66.2415 0.345313ZM74.2697 16.6294V15.9793H76.5125V16.6294H74.2697ZM53.7927 23.8126V22.675H55.9055V23.8126H53.7927ZM68.0291 22.675H68.6792C68.7659 22.675 68.8092 22.7075 68.8092 22.7725V22.935H68.2242V23.13H68.7442V23.2926C68.7442 23.3576 68.7117 23.3901 68.6467 23.3901H68.2242V23.6176H68.8092V23.7801C68.8092 23.8234 68.7659 23.8451 68.6792 23.8451H68.0291C67.9425 23.8451 67.8991 23.8234 67.8991 23.7801V22.7725C67.9208 22.7075 67.9641 22.675 68.0291 22.675ZM67.7691 24.2351H67.9641C67.9858 24.2351 68.105 24.3652 68.3217 24.6252C68.43 24.3652 68.5167 24.2351 68.5817 24.2351H68.7442C68.8092 24.2351 68.8417 24.2676 68.8417 24.3327C68.5383 24.6794 68.3867 25.0477 68.3867 25.4378H68.2242C68.1591 25.4378 68.105 25.2319 68.0616 24.8202C67.8666 24.5385 67.7691 24.3435 67.7691 24.2351ZM67.6066 25.7953H67.8016C67.8883 25.7953 67.975 26.0228 68.0616 26.4779H68.1917C68.2783 26.0228 68.3542 25.7953 68.4192 25.7953H68.6467C68.7117 25.817 68.7442 25.8495 68.7442 25.8928V26.8679C68.7442 26.9546 68.7117 26.9979 68.6467 26.9979H68.4842V26.3153H68.4192L68.2242 26.9979H68.0616C67.9966 26.9979 67.91 26.7704 67.8016 26.3153H67.7691V26.9979H67.6066C67.5199 26.9979 67.4766 26.9546 67.4766 26.8679V25.8928C67.4982 25.8278 67.5416 25.7953 67.6066 25.7953ZM73.6847 28.4931V27.4205H74.2372C74.5189 27.4205 74.6598 27.5613 74.6598 27.843C74.5731 27.843 74.5298 27.8755 74.5298 27.9405C74.6381 28.0705 74.6923 28.1897 74.6923 28.298C74.6056 28.5147 74.4106 28.6231 74.1072 28.6231H73.8147C73.728 28.6231 73.6847 28.5797 73.6847 28.4931ZM74.3022 27.6805H74.0097V27.8755H74.2372C74.2806 27.8755 74.3022 27.843 74.3022 27.778V27.6805ZM74.2697 28.0705H74.0097V28.363H74.2697C74.3347 28.363 74.3673 28.3197 74.3673 28.233V28.2005C74.3673 28.1139 74.3347 28.0705 74.2697 28.0705ZM73.6847 30.0532V28.9806H73.9122C73.9772 28.9806 74.1289 29.219 74.3673 29.6957H74.4323V28.9806H74.6923V30.0532C74.6923 30.1399 74.6598 30.1832 74.5948 30.1832H74.4648C74.4431 30.1832 74.2697 29.9557 73.9447 29.5007V30.0532C73.9447 30.1399 73.9122 30.1832 73.8472 30.1832H73.8147C73.728 30.1832 73.6847 30.1399 73.6847 30.0532ZM89.7087 15.4918V0.280306H99.3622C103.414 0.280306 106.199 1.65627 107.715 4.40821C108.994 6.55342 109.633 10.0963 109.633 15.0367H110.608V22.6425H101.182V21.7974H104.14V15.0367H103.295V12.274C103.295 9.132 102.591 7.13847 101.182 6.29339C100.359 5.81668 99.048 5.57832 97.2495 5.57832H95.9494V14.8742H96.8269V22.6425H90.4563V15.4918H89.7087ZM103.425 20.2698H103.75V21.0823H103.945V21.3424H103.75V21.6674H103.425V21.3424H102.873V21.1473C103.241 20.6056 103.425 20.3131 103.425 20.2698ZM103.165 21.0823H103.425V20.7573C103.382 20.7573 103.295 20.8656 103.165 21.0823ZM97.542 21.7324L97.1195 21.0498H97.4445C97.4878 21.0498 97.5962 21.169 97.7695 21.4074C97.9212 21.234 97.9971 21.1148 97.9971 21.0498H98.3546V21.0823C98.1162 21.429 97.9971 21.6457 97.9971 21.7324L98.4196 22.415H97.9971C97.9971 22.3066 97.9104 22.1658 97.737 21.9924C97.607 22.2524 97.4987 22.3933 97.412 22.415H97.087C97.3253 21.9816 97.477 21.7541 97.542 21.7324ZM86.881 23.6501V22.6425H89.7413V23.6501H96.8269V25.7628H101.182V23.6501H110.608V25.7628H104.14V31.4183H96.8269V32.1009H89.8063C89.7413 32.1009 89.7087 32.0684 89.7087 32.0034V23.6501H86.881ZM96.8269 23.6501V22.6425H101.182V23.6501H96.8269ZM110.608 23.6501V22.6425H116.849V23.6501H110.608ZM104.888 25.9578H105.278C105.516 26.6512 105.668 27.1279 105.733 27.3879H105.473C105.408 27.3879 105.354 27.2904 105.31 27.0954H104.888C104.823 27.0954 104.769 27.1929 104.725 27.3879H104.4V27.3554C104.4 27.3121 104.563 26.8462 104.888 25.9578ZM106.123 25.9578H106.448L106.708 26.8679H106.74C106.74 26.8029 106.838 26.4995 107.033 25.9578H107.358C107.358 26.0662 107.206 26.5429 106.903 27.3879H106.61C106.502 27.3879 106.34 26.9112 106.123 25.9578ZM107.878 27.3879V25.9578H108.268V27.3879H107.878ZM108.886 27.3879V25.9578H109.471C109.947 25.9578 110.186 26.2178 110.186 26.7379C110.186 27.1063 109.947 27.3229 109.471 27.3879H108.886ZM109.601 26.2828H109.276V27.0954H109.601C109.644 27.0954 109.709 27.0196 109.796 26.8679V26.4779C109.796 26.4345 109.731 26.3695 109.601 26.2828ZM105.115 26.3804H105.05C105.05 26.4237 105.007 26.5645 104.92 26.8029H105.18C105.137 26.5645 105.115 26.4237 105.115 26.3804ZM113.956 16.0768V0.475325H129.525V5.67583C129.525 5.74084 129.493 5.77334 129.428 5.77334H120.164V12.6315H128.453V12.6965C128.453 12.8699 128.42 13.9858 128.355 16.0443C128.312 16.0443 128.29 16.0552 128.29 16.0768H128.68V17.6695H121.497V24.1701H119.579V24.8202H121.497V26.8029H129.623V27.518H129.005V31.4183H119.254V32.1009H114.639V20.7573H113.956V16.7594H108.886V16.0768H113.956ZM116.589 16.0768H113.989V16.7594H116.589V16.0768ZM132.028 0.247803H138.789C138.832 0.616172 139.688 4.75491 141.356 12.664H142.754V13.8991H141.064V12.664H138.691V13.8991H141.064V19.5872H141.811V22.545H143.664V18.1896H144.379V13.8991H145.712V12.664H144.672C146.34 4.75491 147.196 0.616172 147.239 0.247803H154C151.551 10.8872 150.327 16.3044 150.327 16.4994V22.0249H148.442V23.13H149.872V26.3804H147.337V32.1009H139.439C139.352 32.1009 139.135 31.2883 138.789 29.6632H140.836V28.3305H138.561C138.453 28.3305 138.236 27.4746 137.911 25.7628C137.759 25.2427 135.798 16.7377 132.028 0.247803Z" fill="url(#paint0_linear)"/>
<defs>
<linearGradient id="paint0_linear" x1="-2.48973" y1="-1.06797" x2="137.082" y2="64.0152" gradientUnits="userSpaceOnUse">
<stop offset="0.442708" stop-color="#F64B00"/>
<stop offset="0.572917" stop-color="#284A6C"/>
</linearGradient>
</defs>
</svg>
