<svg width="121" height="121" viewBox="0 0 121 121" fill="none" xmlns="http://www.w3.org/2000/svg">
<g id="Logo2" filter="url(#filter0_d)">
<path id="Vector" d="M60.5556 1C29.8733 1 5 25.8733 5 56.5556C5 87.2378 29.8733 112.111 60.5556 112.111C91.2378 112.111 116.111 87.2367 116.111 56.5556C116.111 25.8744 91.2378 1 60.5556 1ZM60.5556 106.556C32.9433 106.556 10.5556 84.1667 10.5556 56.5556C10.5556 28.9433 32.9433 6.55556 60.5556 6.55556C88.1678 6.55556 110.556 28.9433 110.556 56.5556C110.556 84.1667 88.1667 106.556 60.5556 106.556Z" fill="#284A6C" stroke="white"/>
<path id="Vector_2" d="M36.4 60.1167C36.4 58.9638 36.858 57.8583 37.6731 57.0431C38.4883 56.2279 39.5939 55.77 40.7467 55.77C41.8995 55.77 43.0051 56.2279 43.8202 57.0431C44.6354 57.8583 45.0933 58.9638 45.0933 60.1167L40.7456 66.8244L36.4 60.1167V60.1167ZM49.9422 7.69554L49.9333 7.69665L49.9422 7.69554ZM67.0111 6.98443L67.2444 7.01332L67.0111 6.98443ZM64.3511 6.71332C64.6089 6.73332 64.8689 6.74888 65.1256 6.77221C64.8678 6.74888 64.6089 6.73332 64.3511 6.71332ZM57.5144 6.65554C57.6356 6.64888 57.7544 6.63443 57.8756 6.62888C57.7544 6.63554 57.6356 6.64888 57.5144 6.65554ZM55.0222 6.86665C55.0778 6.8611 55.1322 6.85221 55.1867 6.84554C55.1322 6.85221 55.0778 6.8611 55.0222 6.86665ZM79.3756 73.9433L42.6144 37.1822L59.4456 20.3511L96.2078 57.1111L79.3756 73.9433Z" fill="#284A6C" stroke="white"/>
<path id="Vector_3" d="M40.7478 61.7555C41.8597 61.7555 42.7611 60.8541 42.7611 59.7422C42.7611 58.6303 41.8597 57.7289 40.7478 57.7289C39.6358 57.7289 38.7344 58.6303 38.7344 59.7422C38.7344 60.8541 39.6358 61.7555 40.7478 61.7555Z" fill="#284A6C" stroke="white"/>
<path id="Vector_4" d="M71.9233 7.87001L71.9178 7.8689L71.9233 7.87001ZM95.0333 92.7456L95.0355 92.7445L95.0333 92.7456ZM24.9089 91.6045L24.91 91.6056L24.9089 91.6045ZM108.797 69.7011V69.6967V69.7011ZM109.607 46.8545L109.604 46.8433L109.607 46.8556V46.8545ZM109.032 44.2856L109.033 44.2878L109.032 44.2856ZM24.3656 22.0767L24.3678 22.0745L24.3656 22.0767ZM70.2556 105.607L70.2667 105.606L70.2556 105.607ZM49.9333 7.69668C49.9248 7.69877 49.9163 7.70099 49.9078 7.70335L49.9333 7.69668ZM40.7456 55.77C39.5929 55.7703 38.4876 56.2284 37.6727 57.0435C36.8578 57.8586 36.4 58.9641 36.4 60.1167L40.7456 66.8245L45.0933 60.1167C45.093 58.9638 44.6348 57.8582 43.8195 57.0431C43.0042 56.2279 41.8985 55.77 40.7456 55.77V55.77ZM40.7478 61.7556C40.2137 61.7556 39.7014 61.5434 39.3237 61.1657C38.9461 60.788 38.7339 60.2758 38.7339 59.7417C38.7339 59.2076 38.9461 58.6953 39.3237 58.3176C39.7014 57.94 40.2137 57.7278 40.7478 57.7278C41.2819 57.7278 41.7941 57.94 42.1718 58.3176C42.5495 58.6953 42.7617 59.2076 42.7617 59.7417C42.7617 60.2758 42.5495 60.788 42.1718 61.1657C41.7941 61.5434 41.2819 61.7556 40.7478 61.7556ZM62.9044 6.61557C63.39 6.6389 63.87 6.67668 64.3511 6.71335C63.87 6.67779 63.3889 6.63779 62.9044 6.61557Z" fill="#284A6C" stroke="white"/>
<g id="Group">
<path id="Vector_5" d="M45.0367 37.09L59.56 22.5667L93.9644 56.97L79.4411 71.4945L45.0367 37.09Z" fill="#284A6C" stroke="white"/>
<path id="Vector_6" d="M42.3767 79.7489L63.5178 100.89C65.8281 100.739 68.123 100.406 70.3811 99.8945L46.3056 75.82L42.3767 79.7489V79.7489ZM41.1089 33.1611L31.1722 23.2245C29.7821 24.451 28.4696 25.7628 27.2422 27.1522L37.18 37.09L41.1089 33.1611V33.1611ZM81.1478 77.6445L77.22 73.7156L79.4422 71.4934L45.0367 37.09L41.1078 41.0189L57.1789 57.0889L59.1611 55.1067L63.0889 59.0356L61.1067 61.0167L89.9567 89.8667C91.3469 88.6402 92.6587 87.3276 93.8845 85.9367L83.3689 75.4222L81.1478 77.6445ZM59.5611 14.7089L57.1089 12.2567C54.7867 12.4356 52.5156 12.79 50.3067 13.3122L55.6322 18.6367L59.5611 14.7089ZM97.89 53.0434L93.9622 56.9722L59.5522 22.5667L63.4811 18.6378L97.89 53.0434ZM101.822 56.97L97.8933 60.8989L103.798 66.8022C104.325 64.5661 104.678 62.2921 104.852 60.0011L101.822 56.97Z" fill="#284A6C" stroke="white"/>
<path id="Vector_7" d="M40.5533 77.9245L44.4822 73.9956L46.3067 75.82L61.1089 61.0178L57.18 57.09L27.7422 86.5267C28.9952 87.8935 30.3318 89.1812 31.7444 90.3823L42.3767 79.75L40.5533 77.9245V77.9245Z" fill="#284A6C" stroke="white"/>
<path id="Vector_8" d="M42.3767 79.7489L40.5522 77.9244L44.4811 73.9956L46.3056 75.82L42.3767 79.7489ZM59.1611 55.1067L63.0889 59.0356L61.1067 61.0178L57.1789 57.0889L59.1611 55.1067ZM83.3689 75.4222L79.4411 71.4933L93.9667 56.9711L97.8944 60.9L83.3689 75.4222ZM101.822 56.97L104.912 53.88C104.773 51.5589 104.452 49.2522 103.953 46.9811L97.8933 53.0411L101.822 56.97V56.97ZM81.1478 77.6456L77.22 73.7167L79.4422 71.4956L83.37 75.4244L81.1478 77.6456Z" fill="#284A6C" stroke="white"/>
<path id="Vector_9" d="M97.8945 60.9L93.9667 56.9711L97.8967 53.0422L101.824 56.9711L97.8945 60.9ZM19.1444 55.1256C19.4191 54.8517 19.748 54.6384 20.11 54.4995C20.4721 54.3605 20.8593 54.2989 21.2466 54.3186C21.6339 54.3384 22.0128 54.4391 22.3588 54.6142C22.7048 54.7893 23.0104 55.0349 23.2557 55.3353C23.501 55.6357 23.6807 55.9841 23.7831 56.3581C23.8856 56.7322 23.9085 57.1235 23.8505 57.507C23.7925 57.8904 23.6549 58.2575 23.4464 58.5845C23.2379 58.9115 22.9632 59.1912 22.64 59.4056L22.68 59.4456L41.1078 41.0178L37.1789 37.0889L19.1444 55.1256ZM18.7511 55.5178L18.7911 55.5578C18.8922 55.4056 19.01 55.26 19.1444 55.1256L18.7511 55.5178ZM41.1078 33.1611L55.6311 18.6378L59.56 22.5656L45.0356 37.09L41.1078 33.1611ZM63.4889 18.6378L69.1722 12.9545C66.8463 12.4993 64.4876 12.2307 62.1189 12.1511L59.56 14.7089L63.4889 18.6378V18.6378Z" fill="#284A6C" stroke="white"/>
<path id="Vector_10" d="M41.1089 41.0189L37.18 37.0911L41.1089 33.1622L45.0367 37.0911L41.1089 41.0189ZM59.5633 14.7111L63.4911 18.64L59.5622 22.5689L55.6344 18.64L59.5633 14.7111ZM19.1444 59.0533C19.5972 59.506 20.1924 59.7884 20.8294 59.8526C21.4664 59.9168 22.1061 59.7588 22.64 59.4056L18.7911 55.5578C18.4382 56.0919 18.2806 56.7316 18.3449 57.3685C18.4093 58.0055 18.6918 58.6006 19.1444 59.0533V59.0533Z" fill="#284A6C" stroke="white"/>
<path id="Vector_11" d="M23.0722 55.1256C22.7812 54.834 22.4289 54.6108 22.0409 54.4724C21.6529 54.3339 21.2389 54.2835 20.829 54.3249C20.4191 54.3662 20.0236 54.4984 19.6711 54.7116C19.3186 54.9249 19.018 55.2139 18.7911 55.5578L22.64 59.4056C22.9837 59.1787 23.2726 58.8781 23.4857 58.5257C23.6988 58.1733 23.8309 57.7779 23.8722 57.3682C23.9136 56.9584 23.8633 56.5446 23.7249 56.1567C23.5866 55.7688 23.3636 55.4166 23.0722 55.1256V55.1256Z" fill="#284A6C" stroke="white"/>
</g>
</g>
<defs>
<filter id="filter0_d" x="0.5" y="0.5" width="120.111" height="120.111" filterUnits="userSpaceOnUse" color-interpolation-filters="sRGB">
<feFlood flood-opacity="0" result="BackgroundImageFix"/>
<feColorMatrix in="SourceAlpha" type="matrix" values="0 0 0 0 0 0 0 0 0 0 0 0 0 0 0 0 0 0 127 0"/>
<feOffset dy="4"/>
<feGaussianBlur stdDeviation="2"/>
<feColorMatrix type="matrix" values="0 0 0 0 0 0 0 0 0 0 0 0 0 0 0 0 0 0 0.25 0"/>
<feBlend mode="normal" in2="BackgroundImageFix" result="effect1_dropShadow"/>
<feBlend mode="normal" in="SourceGraphic" in2="effect1_dropShadow" result="shape"/>
</filter>
</defs>
</svg>
